<svg width="5776" height="1519" viewBox="0 0 5776 1519" fill="none" xmlns="http://www.w3.org/2000/svg">
<path d="M579.433 1195.6C518.833 1195.6 467.683 1183.15 425.983 1158.25C384.283 1133.35 352.633 1097.65 331.033 1051.15C309.433 1004.35 298.633 948.4 298.633 883.3C298.633 822.4 308.533 768.55 328.333 721.75C348.133 674.95 377.083 638.35 415.183 611.95C453.283 585.25 499.783 571.9 554.683 571.9C587.683 571.9 617.683 576.7 644.683 586.3C671.983 595.6 695.533 607.9 715.333 623.2C735.433 638.5 751.183 655.15 762.583 673.15C758.683 678.25 751.933 685.3 742.333 694.3C733.033 703.3 722.683 712.45 711.283 721.75C700.183 731.05 689.533 738.85 679.333 745.15C669.133 728.95 657.883 715.75 645.583 705.55C633.583 695.35 619.933 688 604.633 683.5C589.633 678.7 572.233 676.3 552.433 676.3C534.733 676.3 517.183 680.8 499.783 689.8C482.683 698.8 467.233 712.15 453.433 729.85C439.633 747.55 428.533 769.45 420.133 795.55C412.033 821.35 407.983 851.05 407.983 884.65C407.983 927.85 414.133 965.5 426.433 997.6C439.033 1029.7 458.083 1054.6 483.583 1072.3C509.083 1089.7 541.333 1098.4 580.333 1098.4C608.233 1098.4 630.733 1092.7 647.833 1081.3C665.233 1069.6 677.833 1054.3 685.633 1035.4C693.733 1016.5 697.783 996.25 697.783 974.65C697.783 969.85 697.633 965.05 697.333 960.25C697.333 955.15 697.033 950.5 696.433 946.3C690.133 945.1 679.933 943.45 665.833 941.35C651.733 939.25 635.983 937.15 618.583 935.05C601.483 932.65 584.833 930.7 568.633 929.2C552.733 927.7 539.683 926.65 529.483 926.05C529.483 919.75 529.483 911.5 529.483 901.3C529.783 891.1 530.083 880.9 530.383 870.7C530.683 860.5 531.133 852.1 531.733 845.5C553.933 846.4 580.783 848.35 612.283 851.35C643.783 854.35 675.733 858.25 708.133 863.05C740.533 867.55 768.583 872.65 792.283 878.35C794.683 890.35 796.483 903.25 797.683 917.05C798.883 930.55 799.483 943.3 799.483 955.3C799.483 1000.6 791.683 1041.4 776.083 1077.7C760.483 1114 736.483 1142.8 704.083 1164.1C671.683 1185.1 630.133 1195.6 579.433 1195.6ZM1692.78 676.3C1691.58 671.2 1690.53 664.15 1689.63 655.15C1688.73 645.85 1687.98 636.25 1687.38 626.35C1686.78 616.15 1686.33 607 1686.03 598.9C1685.73 590.5 1685.58 584.5 1685.58 580.9C1719.78 578.8 1758.78 576.85 1802.58 575.05C1846.38 573.25 1890.63 572.35 1935.33 572.35C1968.03 572.35 1999.98 573.1 2031.18 574.6C2062.38 575.8 2090.88 578.05 2116.68 581.35C2117.28 599.35 2116.98 616.75 2115.78 633.55C2114.58 650.05 2113.23 662.8 2111.73 671.8C2105.43 671.5 2096.13 671.35 2083.83 671.35C2071.53 671.05 2057.88 670.75 2042.88 670.45C2027.88 670.15 2012.88 670 1997.88 670C1982.88 669.7 1969.83 669.55 1958.73 669.55C1959.03 680.65 1959.48 697.45 1960.08 719.95C1960.98 742.45 1961.88 768.55 1962.78 798.25C1963.98 827.65 1965.18 858.7 1966.38 891.4C1967.58 924.1 1968.63 956.35 1969.53 988.15C1970.73 1019.65 1971.78 1048.6 1972.68 1075C1973.88 1101.4 1974.78 1123.3 1975.38 1140.7C1975.98 1158.1 1976.43 1168.75 1976.73 1172.65C1967.73 1174.15 1955.88 1175.5 1941.18 1176.7C1926.48 1177.9 1911.78 1178.8 1897.08 1179.4C1882.68 1180 1871.13 1180.3 1862.43 1180.3C1861.53 1162.3 1860.63 1139.8 1859.73 1112.8C1858.83 1085.8 1857.93 1056.25 1857.03 1024.15C1856.43 992.05 1855.83 959.05 1855.23 925.15C1854.63 891.25 1854.18 858.4 1853.88 826.6C1853.58 794.5 1853.43 765.4 1853.43 739.3C1853.43 725.8 1853.43 713.35 1853.43 701.95C1853.73 690.25 1853.88 679.9 1853.88 670.9C1842.78 671.5 1830.03 672.1 1815.63 672.7C1801.53 673 1786.98 673.45 1771.98 674.05C1757.28 674.65 1743.03 675.1 1729.23 675.4C1715.73 675.7 1703.58 676 1692.78 676.3ZM2367.87 1186.6C2288.97 1186.6 2230.32 1165 2191.92 1121.8C2153.52 1078.6 2134.32 1016.2 2134.32 934.6C2134.32 882.1 2144.22 838 2164.02 802.3C2183.82 766.6 2211.42 739.6 2246.82 721.3C2282.22 702.7 2323.32 693.4 2370.12 693.4C2419.02 693.4 2459.52 704.8 2491.62 727.6C2523.72 750.1 2547.57 781.45 2563.17 821.65C2578.77 861.55 2586.57 908.05 2586.57 961.15C2586.57 1006.75 2578.02 1046.5 2560.92 1080.4C2543.82 1114 2518.92 1140.1 2486.22 1158.7C2453.52 1177.3 2414.07 1186.6 2367.87 1186.6ZM2363.82 1089.85C2385.42 1089.85 2404.17 1085.95 2420.07 1078.15C2435.97 1070.05 2449.02 1059.25 2459.22 1045.75C2469.42 1031.95 2476.92 1016.35 2481.72 998.95C2486.82 981.55 2489.37 963.4 2489.37 944.5C2489.37 911.5 2484.72 882.25 2475.42 856.75C2466.42 830.95 2452.62 810.85 2434.02 796.45C2415.72 781.75 2392.62 774.4 2364.72 774.4C2336.22 774.4 2312.52 781.45 2293.62 795.55C2275.02 809.35 2261.07 828.1 2251.77 851.8C2242.77 875.2 2238.27 901.6 2238.27 931C2238.27 977.5 2248.92 1015.6 2270.22 1045.3C2291.52 1075 2322.72 1089.85 2363.82 1089.85ZM2915.02 1066C2857.72 1066 2812.27 1057.15 2778.67 1039.45C2745.07 1021.45 2720.92 998.35 2706.22 970.15C2691.82 941.95 2684.62 912.4 2684.62 881.5C2684.62 842.5 2694.22 809.5 2713.42 782.5C2732.92 755.2 2759.32 734.5 2792.62 720.4C2825.92 706 2863.42 698.8 2905.12 698.8C2974.12 698.8 3026.32 714.85 3061.72 746.95C3097.42 779.05 3115.27 822.4 3115.27 877C3115.27 917.5 3106.72 951.85 3089.62 980.05C3072.52 1008.25 3048.97 1029.7 3018.97 1044.4C2988.97 1058.8 2954.32 1066 2915.02 1066ZM2892.97 1398.55C2847.67 1398.55 2806.57 1394.2 2769.67 1385.5C2733.07 1377.1 2703.97 1362.25 2682.37 1340.95C2661.07 1319.95 2650.42 1290.4 2650.42 1252.3C2650.42 1227.7 2657.92 1205.2 2672.92 1184.8C2688.22 1164.4 2709.82 1147.9 2737.72 1135.3C2765.62 1122.4 2798.77 1115.05 2837.17 1113.25C2855.77 1112.65 2875.87 1112.2 2897.47 1111.9C2919.37 1111.3 2942.62 1111 2967.22 1111C3014.92 1111 3054.22 1121.05 3085.12 1141.15C3116.02 1161.25 3131.47 1193.2 3131.47 1237C3131.47 1275.7 3121.42 1306.9 3101.32 1330.6C3081.22 1354.3 3053.17 1371.55 3017.17 1382.35C2981.47 1393.15 2940.07 1398.55 2892.97 1398.55ZM2898.82 1329.7C2922.82 1329.7 2944.57 1327.3 2964.07 1322.5C2983.87 1317.7 2999.62 1309.6 3011.32 1298.2C3023.02 1286.8 3028.87 1271.5 3028.87 1252.3C3028.87 1235.8 3024.07 1223.05 3014.47 1214.05C3005.17 1205.05 2993.47 1198.75 2979.37 1195.15C2965.27 1191.85 2951.32 1190.2 2937.52 1190.2C2927.32 1190.2 2915.62 1190.2 2902.42 1190.2C2889.52 1190.2 2877.07 1190.2 2865.07 1190.2C2853.37 1190.2 2844.22 1190.2 2837.62 1190.2C2825.32 1190.2 2813.17 1192 2801.17 1195.6C2789.17 1199.5 2779.27 1206.25 2771.47 1215.85C2763.67 1225.45 2759.77 1238.95 2759.77 1256.35C2759.77 1274.95 2765.92 1289.5 2778.22 1300C2790.82 1310.8 2807.62 1318.45 2828.62 1322.95C2849.62 1327.45 2873.02 1329.7 2898.82 1329.7ZM2790.82 1153.3C2754.52 1146.7 2728.42 1135.75 2712.52 1120.45C2696.92 1104.85 2689.12 1088.2 2689.12 1070.5C2689.12 1057.6 2692.12 1046.05 2698.12 1035.85C2704.42 1025.65 2712.22 1017.25 2721.52 1010.65C2730.82 1003.75 2740.42 999.25 2750.32 997.15L2815.57 1033.6C2802.07 1038.1 2792.17 1043.95 2785.87 1051.15C2779.57 1058.05 2776.42 1065.1 2776.42 1072.3C2776.42 1082.5 2781.82 1091.95 2792.62 1100.65C2803.72 1109.35 2818.57 1113.7 2837.17 1113.7L2790.82 1153.3ZM2904.67 983.2C2930.47 983.2 2951.62 978.7 2968.12 969.7C2984.92 960.7 2997.37 948.1 3005.47 931.9C3013.57 915.7 3017.62 896.95 3017.62 875.65C3017.62 857.35 3012.97 841.15 3003.67 827.05C2994.67 812.65 2982.07 801.4 2965.87 793.3C2949.97 784.9 2931.82 780.7 2911.42 780.7C2878.72 780.7 2850.82 788.2 2827.72 803.2C2804.92 817.9 2793.52 842.95 2793.52 878.35C2793.52 910.75 2803.87 936.4 2824.57 955.3C2845.27 973.9 2871.97 983.2 2904.67 983.2ZM3070.72 801.85L3010.87 751.9C3015.37 740.2 3022.42 727.9 3032.02 715C3041.62 701.8 3052.27 689.5 3063.97 678.1C3075.67 666.7 3086.77 657.85 3097.27 651.55C3100.57 656.35 3105.52 663.25 3112.12 672.25C3118.72 681.25 3125.47 690.25 3132.37 699.25C3139.27 708.25 3144.97 715.45 3149.47 720.85C3144.07 724.15 3137.47 728.8 3129.67 734.8C3121.87 740.8 3113.92 747.7 3105.82 755.5C3098.02 763.3 3090.82 771.25 3084.22 779.35C3077.92 787.45 3073.42 794.95 3070.72 801.85ZM3647.38 1080.4C3640.78 1089.4 3631.33 1099.15 3619.03 1109.65C3607.03 1120.15 3592.33 1130.05 3574.93 1139.35C3557.53 1148.65 3537.28 1156.3 3514.18 1162.3C3491.38 1168.3 3465.73 1171.3 3437.23 1171.3C3391.93 1171.3 3352.18 1162.3 3317.98 1144.3C3283.78 1126.3 3257.08 1099.9 3237.88 1065.1C3218.98 1030.3 3209.53 987.55 3209.53 936.85C3209.53 887.65 3219.73 844.9 3240.13 808.6C3260.53 772 3288.58 743.8 3324.28 724C3360.28 703.9 3401.68 693.85 3448.48 693.85C3507.28 693.85 3553.33 711.4 3586.63 746.5C3620.23 781.3 3638.53 828.55 3641.53 888.25C3641.83 898.15 3641.83 907.6 3641.53 916.6C3641.53 925.3 3640.93 934.6 3639.73 944.5C3635.53 944.2 3626.83 943.9 3613.63 943.6C3600.73 943 3585.73 942.55 3568.63 942.25C3551.83 941.65 3535.33 941.2 3519.13 940.9C3502.93 940.3 3489.58 940 3479.08 940C3450.28 940 3421.18 941.5 3391.78 944.5C3362.38 947.2 3336.58 950.2 3314.38 953.5C3314.68 960.7 3315.28 967.75 3316.18 974.65C3317.38 981.25 3318.73 987.55 3320.23 993.55C3325.03 1010.05 3333.58 1024.3 3345.88 1036.3C3358.18 1048 3372.88 1057 3389.98 1063.3C3407.08 1069.6 3425.08 1072.75 3443.98 1072.75C3463.48 1072.75 3480.58 1070.05 3495.28 1064.65C3510.28 1058.95 3523.33 1052.05 3534.43 1043.95C3545.53 1035.55 3554.83 1027.3 3562.33 1019.2C3569.83 1011.1 3576.13 1004.5 3581.23 999.4C3583.03 1000.9 3586.78 1004.65 3592.48 1010.65C3598.48 1016.35 3605.08 1023.25 3612.28 1031.35C3619.78 1039.45 3626.68 1047.85 3632.98 1056.55C3639.58 1064.95 3644.38 1072.9 3647.38 1080.4ZM3317.08 885.55C3335.98 882.25 3358.48 879.4 3384.58 877C3410.68 874.6 3440.53 873.4 3474.13 873.4C3491.83 873.4 3506.98 873.7 3519.58 874.3C3532.18 874.6 3541.18 875.05 3546.58 875.65C3546.58 866.95 3545.38 857.65 3542.98 847.75C3539.98 834.25 3534.43 821.35 3526.33 809.05C3518.23 796.45 3507.28 786.1 3493.48 778C3479.98 769.6 3463.33 765.4 3443.53 765.4C3419.83 765.4 3398.53 770.5 3379.63 780.7C3360.73 790.9 3345.73 805 3334.63 823C3323.83 841 3317.98 861.85 3317.08 885.55ZM4072.82 1098.4C4067.72 1111.6 4060.07 1125.55 4049.87 1140.25C4039.67 1154.95 4025.87 1167.4 4008.47 1177.6C3991.07 1188.1 3969.02 1193.35 3942.32 1193.35C3907.82 1193.35 3880.07 1185.85 3859.07 1170.85C3838.37 1155.85 3823.37 1136.2 3814.07 1111.9C3805.07 1087.3 3800.57 1060.6 3800.57 1031.8C3800.57 1016.2 3800.72 998.65 3801.02 979.15C3801.62 959.65 3802.22 939.55 3802.82 918.85C3803.42 898.15 3804.02 878.35 3804.62 859.45C3805.52 840.55 3806.27 823.9 3806.87 809.5C3807.47 794.8 3807.92 783.85 3808.22 776.65C3780.92 779.35 3756.62 782.35 3735.32 785.65C3714.32 788.95 3700.52 791.35 3693.92 792.85C3691.82 781.15 3690.17 768.85 3688.97 755.95C3687.77 742.75 3686.87 731.2 3686.27 721.3C3685.97 711.1 3685.82 704.5 3685.82 701.5C3702.62 699.1 3721.82 696.7 3743.42 694.3C3765.02 691.9 3786.77 690.1 3808.67 688.9C3808.67 678.4 3808.52 664.9 3808.22 648.4C3808.22 631.9 3808.07 616.45 3807.77 602.05C3807.77 589.75 3807.32 577.75 3806.42 566.05C3805.52 554.05 3804.62 544.15 3803.72 536.35L3904.97 529.15C3905.27 533.65 3905.72 543.7 3906.32 559.3C3906.92 574.9 3907.22 593.8 3907.22 616C3907.22 625.3 3907.22 636.25 3907.22 648.85C3907.22 661.15 3907.22 672.55 3907.22 683.05C3916.82 682.45 3928.22 681.85 3941.42 681.25C3954.62 680.65 3965.12 680.35 3972.92 680.35C3986.72 679.75 3999.62 679.45 4011.62 679.45C4023.62 679.45 4033.82 679.6 4042.22 679.9C4050.62 680.2 4055.87 680.35 4057.97 680.35C4059.47 690.55 4060.52 704.2 4061.12 721.3C4061.72 738.1 4062.02 752.35 4062.02 764.05C4059.02 763.75 4048.82 763.75 4031.42 764.05C4014.32 764.05 3997.37 764.2 3980.57 764.5C3968.87 764.8 3955.82 765.4 3941.42 766.3C3927.02 767.2 3915.17 767.95 3905.87 768.55C3905.57 776.05 3904.97 786.7 3904.07 800.5C3903.47 814.3 3902.87 829.9 3902.27 847.3C3901.97 864.4 3901.52 881.95 3900.92 899.95C3900.32 917.65 3899.87 934.45 3899.57 950.35C3899.27 966.25 3899.12 979.45 3899.12 989.95C3899.12 1009.15 3900.17 1027.15 3902.27 1043.95C3904.37 1060.45 3909.32 1073.95 3917.12 1084.45C3925.22 1094.65 3937.82 1099.75 3954.92 1099.75C3966.62 1099.75 3976.07 1095.85 3983.27 1088.05C3990.77 1080.25 3996.62 1071.25 4000.82 1061.05C4005.32 1050.85 4008.77 1042.15 4011.17 1034.95C4014.17 1038.55 4018.67 1043.5 4024.67 1049.8C4030.67 1056.1 4036.97 1062.7 4043.57 1069.6C4050.47 1076.2 4056.62 1082.2 4062.02 1087.6C4067.42 1093 4071.02 1096.6 4072.82 1098.4ZM4266.25 1181.65C4260.55 1182.25 4252.9 1182.7 4243.3 1183C4233.7 1183.6 4223.65 1183.9 4213.15 1183.9C4201.75 1183.9 4190.8 1183.45 4180.3 1182.55C4170.1 1181.95 4162.6 1180.75 4157.8 1178.95C4160.2 1158.85 4162.3 1133.2 4164.1 1102C4166.2 1070.8 4167.85 1036 4169.05 997.6C4170.55 959.2 4171.3 919.3 4171.3 877.9C4171.3 838.3 4170.7 798.4 4169.5 758.2C4168.3 718 4166.8 679.15 4165 641.65C4163.2 604.15 4161.25 569.95 4159.15 539.05C4161.55 538.15 4166.95 536.95 4175.35 535.45C4183.75 533.95 4193.35 532.45 4204.15 530.95C4214.95 529.15 4225.15 527.65 4234.75 526.45C4244.65 525.25 4252 524.65 4256.8 524.65C4261.6 547.15 4265.65 574.9 4268.95 607.9C4272.25 640.6 4274.8 676.45 4276.6 715.45C4278.7 754.15 4280.05 793.9 4280.65 834.7C4290.85 822.4 4304.2 810.85 4320.7 800.05C4337.2 789.25 4355.5 780.55 4375.6 773.95C4395.7 767.35 4415.95 764.05 4436.35 764.05C4470.55 764.05 4497.25 771.4 4516.45 786.1C4535.65 800.5 4549.15 821.2 4556.95 848.2C4564.75 874.9 4568.65 906.85 4568.65 944.05C4568.65 967.15 4567.75 992.35 4565.95 1019.65C4564.15 1046.95 4561.75 1074.1 4558.75 1101.1C4556.05 1128.1 4553.05 1152.85 4549.75 1175.35C4541.95 1176.55 4533.55 1177.45 4524.55 1178.05C4515.85 1178.65 4507 1178.95 4498 1178.95C4488.7 1178.95 4479.4 1178.5 4470.1 1177.6C4460.8 1176.7 4452.55 1175.65 4445.35 1174.45C4447.45 1160.35 4449.7 1144.15 4452.1 1125.85C4454.5 1107.55 4456.75 1088.8 4458.85 1069.6C4460.95 1050.1 4462.6 1031.2 4463.8 1012.9C4465.3 994.6 4466.05 978.25 4466.05 963.85C4466.05 941.95 4464.1 923.05 4460.2 907.15C4456.3 891.25 4449.55 878.95 4439.95 870.25C4430.65 861.55 4417.15 857.2 4399.45 857.2C4384.75 857.2 4370.8 860.2 4357.6 866.2C4344.7 872.2 4332.85 879.55 4322.05 888.25C4311.55 896.95 4302.7 905.35 4295.5 913.45C4288.3 921.55 4283.35 927.55 4280.65 931.45C4280.65 963.85 4279.9 996.55 4278.4 1029.55C4276.9 1062.55 4275.1 1092.55 4273 1119.55C4270.9 1146.55 4268.65 1167.25 4266.25 1181.65ZM5096.69 1080.4C5090.09 1089.4 5080.64 1099.15 5068.34 1109.65C5056.34 1120.15 5041.64 1130.05 5024.24 1139.35C5006.84 1148.65 4986.59 1156.3 4963.49 1162.3C4940.69 1168.3 4915.04 1171.3 4886.54 1171.3C4841.24 1171.3 4801.49 1162.3 4767.29 1144.3C4733.09 1126.3 4706.39 1099.9 4687.19 1065.1C4668.29 1030.3 4658.84 987.55 4658.84 936.85C4658.84 887.65 4669.04 844.9 4689.44 808.6C4709.84 772 4737.89 743.8 4773.59 724C4809.59 703.9 4850.99 693.85 4897.79 693.85C4956.59 693.85 5002.64 711.4 5035.94 746.5C5069.54 781.3 5087.84 828.55 5090.84 888.25C5091.14 898.15 5091.14 907.6 5090.84 916.6C5090.84 925.3 5090.24 934.6 5089.04 944.5C5084.84 944.2 5076.14 943.9 5062.94 943.6C5050.04 943 5035.04 942.55 5017.94 942.25C5001.14 941.65 4984.64 941.2 4968.44 940.9C4952.24 940.3 4938.89 940 4928.39 940C4899.59 940 4870.49 941.5 4841.09 944.5C4811.69 947.2 4785.89 950.2 4763.69 953.5C4763.99 960.7 4764.59 967.75 4765.49 974.65C4766.69 981.25 4768.04 987.55 4769.54 993.55C4774.34 1010.05 4782.89 1024.3 4795.19 1036.3C4807.49 1048 4822.19 1057 4839.29 1063.3C4856.39 1069.6 4874.39 1072.75 4893.29 1072.75C4912.79 1072.75 4929.89 1070.05 4944.59 1064.65C4959.59 1058.95 4972.64 1052.05 4983.74 1043.95C4994.84 1035.55 5004.14 1027.3 5011.64 1019.2C5019.14 1011.1 5025.44 1004.5 5030.54 999.4C5032.34 1000.9 5036.09 1004.65 5041.79 1010.65C5047.79 1016.35 5054.39 1023.25 5061.59 1031.35C5069.09 1039.45 5075.99 1047.85 5082.29 1056.55C5088.89 1064.95 5093.69 1072.9 5096.69 1080.4ZM4766.39 885.55C4785.29 882.25 4807.79 879.4 4833.89 877C4859.99 874.6 4889.84 873.4 4923.44 873.4C4941.14 873.4 4956.29 873.7 4968.89 874.3C4981.49 874.6 4990.49 875.05 4995.89 875.65C4995.89 866.95 4994.69 857.65 4992.29 847.75C4989.29 834.25 4983.74 821.35 4975.64 809.05C4967.54 796.45 4956.59 786.1 4942.79 778C4929.29 769.6 4912.64 765.4 4892.84 765.4C4869.14 765.4 4847.84 770.5 4828.94 780.7C4810.04 790.9 4795.04 805 4783.94 823C4773.14 841 4767.29 861.85 4766.39 885.55ZM5263.83 773.5C5272.23 759.1 5284.53 745.6 5300.73 733C5316.93 720.4 5335.53 710.35 5356.53 702.85C5377.83 695.05 5399.43 691.15 5421.33 691.15C5435.43 691.15 5449.53 692.5 5463.63 695.2C5477.73 697.9 5488.53 701.5 5496.03 706L5474.88 814C5467.98 811 5458.98 807.85 5447.88 804.55C5436.78 801.25 5423.58 799.6 5408.28 799.6C5391.78 799.6 5375.43 802.45 5359.23 808.15C5343.33 813.85 5328.63 821.8 5315.13 832C5301.63 842.2 5290.23 854.05 5280.93 867.55C5284.53 887.65 5288.28 912.25 5292.18 941.35C5296.08 970.45 5299.68 1000.45 5302.98 1031.35C5306.28 1061.95 5308.98 1089.85 5311.08 1115.05C5313.18 1140.25 5314.23 1159.15 5314.23 1171.75C5298.63 1173.55 5280.03 1174.6 5258.43 1174.9C5237.13 1175.5 5217.03 1175.65 5198.13 1175.35C5198.13 1148.35 5197.38 1119.1 5195.88 1087.6C5194.68 1056.1 5192.88 1023.7 5190.48 990.4C5188.08 957.1 5184.93 924.1 5181.03 891.4C5177.43 858.4 5173.08 826.9 5167.98 796.9C5163.18 766.6 5157.78 739 5151.78 714.1C5161.98 711.1 5173.53 708.25 5186.43 705.55C5199.63 702.55 5211.63 700.15 5222.43 698.35C5233.53 696.25 5240.73 695.2 5244.03 695.2C5247.93 704.5 5251.98 717.4 5256.18 733.9C5260.68 750.1 5263.23 763.3 5263.83 773.5Z" fill="#4067E6"/>
<path d="M1610.32 242.367C1676.2 374.081 1661.25 529.126 1588.3 655.133C1528.46 758.513 1439.14 844.016 1365.54 938.659C1331.9 981.991 1297.92 1027.04 1274.82 1076.38C1267.15 1092.8 1260.52 1109.61 1254 1126.48C1247.42 1143.3 1241.82 1160.47 1235.52 1177.39C1229.59 1193.25 1222.69 1211.93 1201.43 1212.09H1201.05C1175.72 1212.03 1169.58 1185.32 1163.27 1167.29C1147.84 1123.15 1131.69 1080.78 1107.88 1039.77C1080.16 992.092 1045.64 948.003 1010.58 904.872L1610.32 242.367ZM1013.35 389.131L798.148 626.851C837.504 704.626 897.135 771.442 954.212 837.955C967.656 853.611 981.011 869.369 994.274 885.227L1265.2 585.993L1263.62 586.498C1168.98 616.851 1062.98 571.802 1024.88 486.148C1019.68 474.518 1015.87 462.391 1013.52 449.987C1010.09 427.917 1009.33 411.554 1013.3 389.484L1013.35 389.131ZM847.397 159.037L847.234 159.239C741.398 283.78 723.242 456.199 786.516 602.154L1046.62 314.84L1043.47 312.315L847.397 159.037ZM1345.81 22.0205L1137.18 252.468L1138.65 251.963C1225.62 224.136 1323.63 259.539 1368.04 334.082C1377.61 350.192 1385.6 368.576 1388.54 386.858C1392.23 409.382 1393.16 425.897 1389.19 448.472L1389.03 449.28L1597.55 218.934C1543.06 126.589 1453.48 56.4336 1346.3 22.172L1345.81 22.0205ZM1063.42 296.356L1318.69 14.3945L1316.13 13.7884C1278.36 4.55812 1239.46 -0.0764425 1200.4 0.000953511C1137.16 0.554317 1074.73 13.2493 1017.02 37.2887C959.312 61.3282 907.577 96.1929 865.064 139.694L864.194 140.603L1063.42 296.356Z" fill="#14AE5C"/>
</svg>
